<svg width="83" height="63" viewBox="0 0 83 63" fill="none" xmlns="http://www.w3.org/2000/svg">
<path fill-rule="evenodd" clip-rule="evenodd" d="M10.375 0.354492C7.62338 0.354492 4.98446 1.44318 3.03877 3.38105C1.09308 5.31893 0 7.94725 0 10.6878V26.1878C0 28.9284 1.09308 31.5567 3.03877 33.4946C4.98446 35.4325 7.62338 36.5212 10.375 36.5212H25.9375C25.9375 40.632 24.2979 44.5745 21.3794 47.4813C18.4608 50.3881 14.5024 52.0212 10.375 52.0212H5.1875C3.81169 52.0212 2.49223 52.5655 1.51938 53.5344C0.54654 54.5034 0 55.8175 0 57.1878C0 58.5581 0.54654 59.8723 1.51938 60.8412C2.49223 61.8102 3.81169 62.3545 5.1875 62.3545H10.375C17.2541 62.3545 23.8514 59.6328 28.7156 54.7881C33.5798 49.9434 36.3125 43.3726 36.3125 36.5212V10.6878C36.3125 7.94725 35.2194 5.31893 33.2737 3.38105C31.328 1.44318 28.6891 0.354492 25.9375 0.354492H10.375ZM57.0625 0.354492C54.3109 0.354492 51.672 1.44318 49.7263 3.38105C47.7806 5.31893 46.6875 7.94725 46.6875 10.6878V26.1878C46.6875 28.9284 47.7806 31.5567 49.7263 33.4946C51.672 35.4325 54.3109 36.5212 57.0625 36.5212H72.625C72.625 40.632 70.9854 44.5745 68.0668 47.4813C65.1483 50.3881 61.1899 52.0212 57.0625 52.0212H51.875C50.4992 52.0212 49.1797 52.5655 48.2069 53.5344C47.234 54.5034 46.6875 55.8175 46.6875 57.1878C46.6875 58.5581 47.234 59.8723 48.2069 60.8412C49.1797 61.8102 50.4992 62.3545 51.875 62.3545H57.0625C63.9416 62.3545 70.5389 59.6328 75.4031 54.7881C80.2673 49.9434 83 43.3726 83 36.5212V10.6878C83 7.94725 81.9069 5.31893 79.9612 3.38105C78.0155 1.44318 75.3766 0.354492 72.625 0.354492H57.0625Z" fill="white"/>
</svg>
